<?xml version="1.0" encoding="utf-8"?>
<svg height="600" width="800" version="1.1" xmlns="http://www.w3.org/2000/svg">
  <defs>
    <linearGradient gradientUnits="userSpaceOnUse" id="gradient">
      <stop offset="0" stop-color="white" stop-opacity="0" />
      <stop offset="0.4" stop-color="white" stop-opacity="1" />
      <stop offset="0.6" stop-color="white" stop-opacity="1" />
      <stop offset="1" stop-color="white" stop-opacity="0" />
    </linearGradient>
  </defs>
  <!-- Text bar -->
  <rect fill="#535d6c" y="520" height="80" width="800" />
  <g stroke-width="2" fill="none" stroke="white" opacity="0.1">
    <!-- Text divider lines -->
    <line x1="50"  y1="520" x2="50"  y2="600" />
    <line x1="100" y1="520" x2="100" y2="600" />
    <line x1="150" y1="520" x2="150" y2="600" />
    <line x1="200" y1="520" x2="200" y2="600" />
    <line x1="250" y1="520" x2="250" y2="600" />
    <line x1="300" y1="520" x2="300" y2="600" />
    <line x1="350" y1="520" x2="350" y2="600" />
    <line x1="400" y1="520" x2="400" y2="600" />
    <line x1="450" y1="520" x2="450" y2="600" />
    <line x1="500" y1="520" x2="500" y2="600" />
    <line x1="550" y1="520" x2="550" y2="600" />
    <line x1="600" y1="520" x2="600" y2="600" />
    <line x1="650" y1="520" x2="650" y2="600" />
    <line x1="700" y1="520" x2="700" y2="600" />
    <line x1="750" y1="520" x2="750" y2="600" />
  </g>
</svg>